<?xml version="1.0" standalone="no"?>
<!DOCTYPE svg PUBLIC "-//W3C//DTD SVG 20010904//EN"
 "http://www.w3.org/TR/2001/REC-SVG-20010904/DTD/svg10.dtd">
<svg version="1.0" xmlns="http://www.w3.org/2000/svg"
 width="2500.000000pt" height="2500.000000pt" viewBox="0 0 2500.000000 2500.000000"
 preserveAspectRatio="xMidYMid meet">
<metadata>
Created by potrace 1.14, written by Peter Selinger 2001-2017
</metadata>
<g transform="translate(0.000000,2500.000000) scale(0.100000,-0.100000)"
fill="#000000" stroke="none">
<path d="M15649 19306 c-3 -3 -124 -12 -269 -21 -302 -17 -729 -73 -920 -119
-107 -26 -696 -196 -780 -224 -47 -16 -112 -42 -145 -57 -33 -15 -100 -42
-148 -61 -114 -44 -590 -255 -687 -304 -41 -22 -98 -48 -126 -59 -29 -11 -80
-37 -115 -59 -35 -21 -91 -51 -124 -66 -136 -63 -243 -120 -340 -182 -38 -24
-88 -54 -110 -65 -22 -12 -47 -27 -55 -34 -8 -7 -31 -21 -50 -32 -19 -10 -75
-45 -125 -77 -49 -33 -130 -84 -180 -114 -49 -31 -128 -84 -175 -118 -47 -34
-110 -74 -140 -89 -30 -15 -79 -39 -107 -53 -29 -15 -53 -30 -53 -33 0 -4 -10
-11 -22 -14 -13 -4 -37 -18 -55 -31 -17 -13 -36 -24 -41 -24 -5 0 -15 -7 -22
-15 -14 -17 -97 -75 -107 -75 -3 0 -21 -11 -39 -25 -18 -14 -35 -25 -38 -25
-2 0 -33 -19 -68 -42 -81 -55 -97 -64 -131 -83 -15 -9 -63 -43 -107 -75 -43
-33 -81 -60 -84 -60 -3 0 -42 -27 -88 -61 -46 -33 -101 -72 -123 -87 -114 -77
-381 -283 -480 -371 -27 -24 -75 -55 -105 -69 -51 -23 -182 -110 -205 -136 -6
-6 -25 -19 -42 -29 -18 -10 -52 -35 -75 -56 -24 -22 -62 -54 -86 -72 -23 -19
-68 -54 -99 -79 -242 -190 -326 -258 -378 -305 -33 -29 -83 -72 -112 -94 -28
-23 -53 -45 -55 -49 -2 -4 -39 -35 -83 -69 -44 -34 -105 -85 -136 -114 -30
-30 -78 -72 -105 -94 -27 -22 -76 -66 -109 -98 -33 -33 -90 -83 -126 -112 -36
-29 -99 -86 -141 -126 -60 -60 -433 -410 -457 -429 -26 -23 -588 -599 -671
-689 -58 -63 -145 -155 -194 -205 -49 -50 -106 -113 -127 -141 -20 -27 -70
-84 -110 -125 -39 -41 -88 -95 -108 -120 -20 -25 -61 -72 -93 -105 -31 -33
-69 -79 -85 -102 -29 -43 -157 -194 -231 -272 -24 -25 -77 -91 -119 -146 -42
-55 -90 -116 -107 -136 -17 -20 -53 -64 -81 -99 -27 -34 -54 -68 -60 -74 -5
-6 -21 -27 -35 -46 -13 -19 -40 -52 -60 -73 -19 -22 -46 -56 -60 -77 -37 -56
-89 -125 -137 -181 -23 -27 -47 -58 -53 -69 -6 -12 -37 -56 -68 -98 -32 -42
-64 -87 -72 -99 -8 -11 -48 -64 -88 -117 -39 -52 -72 -99 -72 -104 0 -5 -11
-19 -25 -32 -13 -13 -34 -41 -45 -63 -12 -21 -44 -71 -73 -111 -66 -89 -148
-209 -163 -237 -6 -11 -22 -32 -36 -47 -46 -51 -128 -189 -128 -215 0 -19 646
-584 810 -707 26 -19 71 -56 101 -82 74 -64 219 -178 227 -178 4 0 25 -17 47
-37 39 -37 271 -215 396 -305 13 -10 103 -75 200 -145 97 -71 214 -155 260
-187 81 -57 513 -350 547 -371 9 -5 80 -51 157 -101 141 -91 189 -121 235
-146 14 -8 52 -31 85 -52 60 -40 174 -111 210 -133 11 -7 41 -23 67 -37 39
-21 228 -135 278 -166 8 -6 25 -14 37 -19 11 -6 24 -15 28 -20 3 -6 12 -11 19
-11 14 0 133 -65 201 -109 22 -14 74 -43 115 -64 98 -50 277 -145 315 -168 16
-10 77 -41 135 -70 58 -28 114 -56 125 -62 95 -51 373 -187 383 -187 6 0 12
-4 12 -10 0 -5 5 -10 12 -10 12 0 73 -28 254 -116 114 -55 132 -60 162 -45 24
12 150 70 192 88 19 8 42 19 50 24 8 5 22 12 30 15 20 8 241 114 260 124 8 5
51 27 95 50 44 22 94 49 110 60 17 10 37 19 46 19 9 1 22 8 29 16 7 8 23 15
35 15 20 0 68 26 209 113 11 7 52 33 91 59 40 26 84 53 99 59 14 7 26 16 26
21 0 4 5 8 11 8 6 0 31 14 56 30 24 17 46 30 49 30 2 0 50 30 107 67 56 38
106 70 111 72 20 8 141 95 144 102 2 5 10 9 17 9 7 0 28 12 46 27 35 30 96 74
172 124 26 17 47 34 47 39 0 5 21 22 48 40 77 51 349 254 362 270 3 4 12 11
21 16 9 5 40 30 70 56 30 26 73 62 96 80 83 66 231 196 348 307 45 42 110 103
145 135 125 114 443 431 482 481 22 28 92 104 156 170 65 66 153 160 197 210
140 158 157 176 336 360 98 99 194 203 215 230 51 68 212 230 282 283 182 139
224 167 376 241 90 45 168 81 173 81 4 1 26 9 48 20 52 25 258 28 289 5 11 -8
34 -15 50 -15 17 0 40 -7 50 -15 11 -8 27 -15 36 -15 21 0 171 -78 186 -96 6
-8 15 -14 19 -14 24 0 202 -171 226 -218 8 -14 24 -37 37 -51 12 -13 25 -35
28 -48 4 -13 10 -23 14 -23 4 0 10 -12 13 -27 3 -16 10 -48 16 -73 17 -75 13
-313 -8 -430 -21 -121 -69 -310 -82 -324 -5 -6 -9 -16 -9 -24 0 -12 -96 -174
-193 -326 -106 -167 -305 -417 -544 -682 -99 -111 -274 -315 -323 -377 -69
-89 -156 -193 -250 -298 -47 -53 -109 -124 -138 -159 -108 -129 -180 -207
-287 -316 -60 -61 -144 -146 -185 -188 -41 -42 -113 -109 -160 -149 -46 -40
-107 -92 -135 -117 -93 -84 -170 -146 -240 -195 -38 -27 -83 -61 -100 -76 -47
-42 -519 -399 -529 -399 -3 0 -24 -13 -48 -28 -24 -15 -60 -37 -80 -47 -42
-22 -50 -50 -15 -59 12 -3 65 -6 117 -6 52 0 136 -4 185 -10 265 -27 1037 -30
1160 -5 39 8 93 15 120 15 45 0 109 10 275 42 30 5 73 13 95 18 22 4 99 19
170 33 72 15 155 32 185 37 142 28 338 76 465 116 77 23 160 48 185 54 25 7
63 18 85 24 22 7 67 21 100 31 74 21 183 65 291 117 45 21 95 38 112 38 20 0
43 10 65 30 19 17 44 30 56 30 11 0 46 14 76 30 30 17 60 30 67 30 6 0 49 18
97 41 92 43 120 56 191 85 25 10 77 37 115 59 61 36 140 81 210 119 18 10 102
62 151 94 10 6 30 17 42 22 13 6 57 35 97 65 40 30 76 55 79 55 4 0 31 18 60
40 29 22 58 40 65 40 10 0 88 57 142 104 9 7 21 15 27 17 14 5 208 168 301
253 103 94 282 279 394 406 50 58 94 107 97 110 7 6 88 114 143 192 21 29 53
73 72 98 19 25 60 83 92 130 32 47 60 87 63 90 17 17 171 270 243 400 65 118
117 231 117 255 0 7 7 26 15 41 8 16 15 36 15 45 0 9 7 30 15 45 8 16 15 39
15 51 0 12 4 24 9 28 5 3 12 20 16 38 10 49 26 99 41 129 8 14 14 34 14 45 0
10 7 27 15 37 8 11 15 28 15 37 0 10 8 32 17 51 30 60 39 82 53 128 7 25 20
52 27 61 7 8 13 20 13 26 0 6 7 24 15 40 8 15 32 66 53 113 61 132 80 170 116
235 18 33 50 92 71 130 21 39 49 86 61 105 13 19 24 38 24 43 0 4 8 20 19 35
45 64 121 183 121 188 0 3 14 23 30 44 17 21 30 41 30 44 0 8 139 199 180 248
17 20 42 54 56 75 14 21 36 47 48 58 12 11 43 47 68 81 43 55 171 194 323 348
172 175 439 416 518 468 22 15 52 38 66 51 14 13 44 35 66 50 22 15 67 47 100
72 33 25 74 52 90 61 17 9 39 25 50 35 11 9 31 24 45 31 14 8 51 30 82 51 31
20 60 37 63 37 4 0 21 11 38 24 18 13 55 36 82 51 28 14 73 40 100 56 28 16
61 35 75 42 14 6 27 14 30 17 3 3 23 13 45 24 22 10 47 22 55 27 8 5 22 12 30
15 8 3 22 10 30 15 8 5 22 12 30 15 8 3 22 9 31 14 9 5 33 12 53 15 20 4 39
11 42 16 3 5 25 18 49 29 24 11 47 24 50 30 3 5 15 10 25 10 10 0 25 7 34 15
8 8 23 15 33 15 10 0 27 7 37 15 11 8 29 15 40 15 31 1 56 24 56 52 0 14 -15
56 -34 94 -19 38 -48 101 -66 139 -17 39 -36 77 -41 85 -5 8 -12 22 -15 30
-12 29 -116 245 -125 260 -5 8 -13 24 -18 35 -5 11 -20 45 -34 75 -13 30 -27
66 -31 80 -3 14 -26 57 -51 95 -25 39 -57 93 -70 122 -14 28 -30 55 -35 58 -6
3 -10 13 -10 21 0 8 -11 31 -23 52 -13 20 -41 69 -62 107 -21 39 -53 97 -71
130 -19 33 -37 67 -41 75 -4 8 -26 47 -50 86 -24 39 -43 74 -43 78 0 10 -64
111 -72 114 -4 2 -8 9 -8 16 0 6 -20 43 -45 80 -25 38 -45 75 -45 81 0 7 -7
15 -15 19 -8 3 -15 15 -15 27 0 12 -8 23 -20 26 -11 3 -20 12 -20 19 0 8 -7
14 -16 14 -12 0 -15 6 -10 26 6 22 4 25 -14 22 -13 -2 -26 6 -38 23 -9 14 -61
91 -115 170 -54 79 -135 200 -181 269 -46 69 -100 145 -120 169 -20 24 -36 46
-36 50 0 4 -8 16 -18 27 -18 20 -165 207 -218 278 -17 23 -59 68 -94 101 -35
33 -88 87 -119 120 -144 153 -263 273 -336 338 -44 38 -112 100 -151 137 -38
37 -95 85 -125 107 -30 23 -76 62 -104 87 -27 25 -53 46 -58 46 -4 0 -26 17
-50 38 -23 21 -58 48 -77 60 -20 11 -46 32 -59 46 -14 14 -29 26 -35 26 -6 0
-22 10 -36 23 -23 20 -208 149 -248 172 -10 6 -32 20 -49 33 -17 12 -34 22
-37 22 -3 0 -25 14 -49 30 -25 17 -49 30 -55 30 -5 0 -12 7 -16 15 -3 8 -14
15 -24 15 -10 0 -23 5 -29 11 -11 11 -33 25 -78 49 -11 6 -42 24 -70 40 -27
16 -62 35 -77 41 -16 6 -28 15 -28 20 0 5 -6 9 -13 9 -8 0 -34 11 -58 25 -24
14 -51 27 -59 31 -8 3 -22 10 -30 15 -8 5 -22 12 -30 15 -27 11 -185 86 -200
95 -8 5 -22 12 -30 15 -8 3 -28 12 -43 20 -16 7 -37 14 -47 14 -9 0 -23 7 -30
15 -7 8 -20 15 -29 15 -9 0 -25 7 -35 15 -11 8 -30 15 -42 15 -13 0 -26 5 -29
10 -3 6 -17 10 -29 10 -13 0 -29 7 -36 15 -7 8 -22 15 -34 15 -12 0 -31 7 -42
15 -10 8 -28 15 -40 15 -11 0 -29 7 -40 15 -10 8 -28 15 -39 15 -11 0 -29 7
-39 15 -11 8 -31 15 -45 15 -14 0 -35 7 -45 15 -11 8 -32 15 -47 15 -15 0 -31
5 -34 10 -3 6 -16 10 -28 10 -12 1 -40 9 -62 20 -22 11 -52 19 -67 20 -15 0
-30 5 -33 10 -3 6 -23 10 -44 10 -20 0 -46 7 -57 15 -10 8 -32 15 -49 15 -16
0 -43 7 -59 15 -15 8 -44 15 -63 15 -19 0 -43 5 -55 11 -11 6 -48 15 -82 21
-33 5 -86 14 -116 19 -191 31 -411 54 -880 91 -164 13 -542 22 -551 14z m2171
-2762 c342 -51 596 -178 820 -410 339 -352 456 -804 341 -1314 -35 -157 -147
-372 -268 -517 -24 -28 -43 -56 -43 -61 0 -5 -12 -18 -27 -27 -16 -10 -44 -34
-64 -54 -118 -119 -400 -272 -574 -312 -251 -57 -449 -57 -700 0 -212 48 -504
220 -655 386 -86 95 -212 288 -249 385 -8 19 -20 49 -26 65 -35 83 -72 230
-81 320 -4 39 -10 93 -13 120 -3 28 -3 79 1 115 24 215 28 235 65 355 24 79
34 103 90 213 143 282 384 509 671 631 244 104 484 139 712 105z"/>
<path d="M19050 18526 c0 -9 5 -16 10 -16 6 0 10 4 10 9 0 6 -4 13 -10 16 -5
3 -10 -1 -10 -9z"/>
<path d="M19089 18496 c16 -19 44 -21 39 -3 -3 6 -15 14 -28 15 -21 3 -22 2
-11 -12z"/>
<path d="M19420 18300 c0 -5 5 -10 10 -10 6 0 10 5 10 10 0 6 -4 10 -10 10 -5
0 -10 -4 -10 -10z"/>
<path d="M19486 18257 c10 -15 27 -27 36 -27 22 0 14 26 -10 34 -9 3 -23 9
-31 12 -9 4 -7 -2 5 -19z"/>
<path d="M19551 18218 c0 -7 14 -24 30 -37 23 -18 33 -21 42 -12 9 9 4 17 -18
36 -33 27 -55 32 -54 13z"/>
<path d="M19630 18161 c0 -10 79 -71 92 -71 5 0 25 -16 45 -35 38 -37 53 -43
53 -22 0 15 -24 37 -70 63 -18 10 -46 31 -60 47 -26 26 -60 36 -60 18z"/>
<path d="M19840 18009 c0 -5 5 -7 10 -4 6 3 10 -1 10 -9 0 -17 86 -85 107 -86
7 0 10 7 7 15 -3 8 -9 13 -12 12 -4 -1 -21 12 -37 29 -42 44 -85 66 -85 43z"/>
<path d="M20010 17882 c0 -13 49 -56 56 -49 3 3 -6 17 -21 31 -30 28 -35 30
-35 18z"/>
<path d="M20202 17715 c15 -14 30 -25 34 -25 4 0 -3 11 -16 25 -13 14 -28 25
-34 25 -6 0 1 -11 16 -25z"/>
<path d="M21585 16080 c-3 -5 -1 -10 4 -10 6 0 11 5 11 10 0 6 -2 10 -4 10 -3
0 -8 -4 -11 -10z"/>
<path d="M21640 15996 c0 -9 5 -16 10 -16 6 0 10 4 10 9 0 6 -4 13 -10 16 -5
3 -10 -1 -10 -9z"/>
<path d="M3118 9043 c-28 -34 -118 -191 -118 -206 0 -8 -7 -20 -15 -27 -8 -7
-15 -18 -15 -24 0 -10 -61 -136 -98 -201 -6 -11 -44 -90 -85 -175 -92 -190
-194 -400 -206 -420 -5 -8 -13 -26 -19 -40 -6 -14 -25 -55 -41 -92 -17 -37
-31 -70 -31 -74 0 -8 -29 -74 -41 -94 -5 -8 -12 -22 -15 -30 -3 -8 -12 -30
-20 -47 -8 -18 -21 -49 -29 -68 -8 -19 -21 -50 -29 -67 -8 -18 -19 -44 -24
-58 -6 -14 -20 -46 -31 -72 -12 -26 -21 -49 -21 -52 0 -7 -47 -114 -60 -138
-6 -10 -20 -46 -31 -80 -12 -35 -33 -80 -46 -100 -33 -53 -31 -85 7 -93 16 -4
32 -11 35 -16 4 -5 21 -9 39 -9 18 0 41 -7 52 -15 10 -8 33 -15 49 -15 17 0
39 -7 49 -15 11 -8 36 -15 56 -15 20 0 40 -4 46 -10 9 -9 30 -15 159 -41 28
-6 55 -14 60 -19 6 -5 30 -11 54 -15 23 -3 54 -10 68 -16 13 -5 39 -9 57 -9
18 0 41 -7 52 -15 10 -8 38 -15 60 -15 23 0 58 -7 77 -15 20 -8 56 -15 80 -15
24 0 48 -5 54 -11 5 -5 37 -13 69 -16 32 -3 68 -10 79 -16 20 -10 94 -21 240
-35 44 -5 90 -14 102 -20 12 -7 46 -12 75 -12 30 0 80 -7 111 -15 32 -8 87
-15 122 -15 35 0 76 -5 92 -11 15 -5 89 -14 164 -18 75 -4 142 -12 150 -17 54
-35 1764 -34 1819 1 8 5 71 12 140 16 158 9 255 30 255 57 0 16 -130 77 -180
86 -58 10 -88 21 -245 92 -133 61 -695 349 -762 391 -21 12 -39 23 -42 23 -2
0 -30 17 -62 39 -33 21 -120 73 -194 116 -195 111 -272 163 -300 202 -14 18
-92 88 -175 154 -82 66 -211 170 -285 230 -148 121 -520 482 -604 588 -70 86
-219 228 -332 316 -83 65 -209 195 -263 273 -26 37 -32 39 -53 15z"/>
</g>
</svg>
